<?xml version="1.0" encoding="utf-8"?>
<!-- Generator: Adobe Illustrator 25.2.0, SVG Export Plug-In . SVG Version: 6.00 Build 0)  -->
<svg version="1.1" id="Layer_1" xmlns="http://www.w3.org/2000/svg" xmlns:xlink="http://www.w3.org/1999/xlink" x="0px" y="0px"
	 viewBox="0 0 605 300" style="enable-background:new 0 0 605 300;" xml:space="preserve">
<style type="text/css">
	.st0{fill:#FEDA2C;stroke:#FEDA2C;stroke-miterlimit:10;}
	.st1{font-family:'Helvetica';}
	.st2{font-size:148.5705px;}
	.st3{fill:#EF482A;}
	.st4{fill:#F89821;}
	.st5{fill:#FEDA2C;}
	.st6{fill:#FEFFFF;}
	.st7{fill:#EF472C;}
</style>
<text transform="matrix(1.0033 0 0 1 12.0031 122.1515)" class="st0 st1 st2">Holidaze</text>
<g>
	<polygon class="st3" points="30,149.7 12,172.51 12,209 48,209 48,172.51 	"/>
	<polygon class="st3" points="130.5,149.7 112,172.51 112,172.54 98.5,158.73 85,172.54 85,209 112,209 149,209 149,172.51 	"/>
	<polygon class="st3" points="234.5,149.7 216,172.51 216,209 253,209 253,172.51 	"/>
	<polygon class="st3" points="327,172.51 308.5,149.7 290,172.51 290,209 327,209 327,172.54 	"/>
	<polygon class="st3" points="577,159.36 562,178.45 562,172.51 543.5,149.7 525,172.51 506.5,149.7 488,172.51 469.5,149.7 
		451,172.51 451,209 488,209 525,209 562,209 592,209 592,178.45 	"/>
	<polygon class="st4" points="372.5,149.7 354,172.51 354,172.54 340.5,158.73 327,172.54 327,209 354,209 391,209 391,172.51 	"/>
	<polygon class="st5" points="271.5,149.7 253,172.51 253,209 290,209 290,172.51 	"/>
	<polygon class="st6" points="199.5,149.7 183,172.51 166,149.7 149,172.51 149,209 183,209 216,209 216,172.51 	"/>
	<polygon class="st6" points="436,154.09 421,172.51 406,154.09 391,172.51 391,209 421,209 451,209 451,172.51 	"/>
	<polygon class="st4" points="85,172.51 66.5,149.7 48,172.51 48,209 85,209 85,172.54 	"/>
</g>
<g>
	<rect x="12" y="219" class="st7" width="36" height="10"/>
	<rect x="48" y="219" class="st4" width="37" height="10"/>
	<rect x="85" y="219" class="st7" width="64" height="10"/>
	<polygon class="st6" points="149,219 149,219 149,229 149,229 216,229 216,219 	"/>
	<rect x="216" y="219" class="st7" width="37" height="10"/>
	<rect x="253" y="219" class="st5" width="37" height="10"/>
	<rect x="290" y="219" class="st7" width="37" height="10"/>
	<rect x="327" y="219" class="st4" width="64" height="10"/>
	<rect x="391" y="219" class="st6" width="61" height="10"/>
	<rect x="452" y="219" class="st7" width="140" height="10"/>
</g>
<g>
	<rect x="12" y="239" class="st7" width="36" height="10"/>
	<rect x="48" y="239" class="st4" width="37" height="10"/>
	<rect x="85" y="239" class="st7" width="64" height="10"/>
	<polygon class="st6" points="149,239 149,239 149,249 149,249 216,249 216,239 	"/>
	<rect x="216" y="239" class="st7" width="37" height="10"/>
	<rect x="253" y="239" class="st5" width="37" height="10"/>
	<rect x="290" y="239" class="st7" width="37" height="10"/>
	<rect x="327" y="239" class="st4" width="64" height="10"/>
	<rect x="391" y="239" class="st6" width="61" height="10"/>
	<rect x="452" y="239" class="st7" width="140" height="10"/>
</g>
<g>
	<rect x="12" y="258" class="st7" width="36" height="10"/>
	<polygon class="st4" points="49,258 48,258 48,268 49,268 85,268 85,258 	"/>
	<rect x="85" y="258" class="st7" width="64" height="10"/>
	<polygon class="st6" points="149,258 149,258 149,268 149,268 216,268 216,258 	"/>
	<rect x="216" y="258" class="st7" width="37" height="10"/>
	<rect x="253" y="258" class="st5" width="37" height="10"/>
	<rect x="290" y="258" class="st7" width="37" height="10"/>
	<rect x="327" y="258" class="st4" width="64" height="10"/>
	<rect x="391" y="258" class="st6" width="61" height="10"/>
	<rect x="452" y="258" class="st7" width="140" height="10"/>
</g>
<g>
	<rect x="12" y="278" class="st7" width="36" height="10"/>
	<polygon class="st4" points="49,278 48,278 48,288 49,288 85,288 85,278 	"/>
	<rect x="85" y="278" class="st7" width="64" height="10"/>
	<polygon class="st6" points="149,278 149,278 149,288 149,288 216,288 216,278 	"/>
	<rect x="216" y="278" class="st7" width="37" height="10"/>
	<rect x="253" y="278" class="st5" width="37" height="10"/>
	<rect x="290" y="278" class="st7" width="37" height="10"/>
	<rect x="327" y="278" class="st4" width="64" height="10"/>
	<rect x="391" y="278" class="st6" width="61" height="10"/>
	<rect x="452" y="278" class="st7" width="140" height="10"/>
</g>
</svg>
